<svg width="51" height="50" viewBox="0 0 51 50" fill="none" xmlns="http://www.w3.org/2000/svg">
<path d="M42.5 25C42.5 34.4 34.9 42 25.5 42C16.1 42 8.5 34.4 8.5 25C8.5 15.6 16.1 8 25.5 8C34.9 8 42.5 15.6 42.5 25ZM10.5 25C10.5 33.3 17.2 40 25.5 40C33.8 40 40.5 33.3 40.5 25C40.5 16.7 33.8 10 25.5 10C17.2 10 10.5 16.7 10.5 25Z" fill="white"/>
<path d="M34.9001 25L25.2001 34.7L23.8 33.3L32.1 25L23.8 16.7L25.2 15.2999L34.9001 25Z" fill="white"/>
<path d="M16.5 26L16.5 24L33.5 24L33.5 26L16.5 26Z" fill="white"/>
</svg>
